# Blender 4.5.1 LTS
# www.blender.org
mtllib Ico.mtl
o IcoSphere
v 0.000000 0.047038 0.000000
v 0.723600 0.599823 0.525720
v -0.276385 0.599823 0.850640
v 0.723600 0.599823 -0.525720
v -0.894425 0.599823 0.000000
v -0.276385 0.599823 -0.850640
v 0.894425 1.494253 0.000000
v 0.276385 1.494253 0.850640
v -0.723600 1.494253 0.525720
v -0.723600 1.494253 -0.525720
v 0.276385 1.494253 -0.850640
v 0.000000 2.047038 0.000000
vn 0.1876 -0.7947 0.5774
vn 0.6071 -0.7947 -0.0000
vn -0.4911 -0.7947 0.3568
vn -0.4911 -0.7947 -0.3568
vn 0.1876 -0.7947 -0.5774
vn 0.9822 -0.1876 -0.0000
vn 0.3035 -0.1876 0.9342
vn -0.7946 -0.1876 0.5774
vn -0.7946 -0.1876 -0.5774
vn 0.3035 -0.1876 -0.9342
vn 0.7946 0.1876 0.5774
vn -0.3035 0.1876 0.9342
vn -0.9822 0.1876 -0.0000
vn -0.3035 0.1876 -0.9342
vn 0.7946 0.1876 -0.5774
vn 0.4911 0.7947 0.3568
vn -0.1876 0.7947 0.5774
vn -0.6071 0.7947 -0.0000
vn -0.1876 0.7947 -0.5774
vn 0.4911 0.7947 -0.3568
vt 0.204120 0.403881
vt 0.432335 0.227106
vt 0.432335 0.462805
vt 0.165140 0.117853
vt 0.031830 0.929890
vt 0.000000 0.696350
vt 0.250000 0.840685
vt 0.468170 0.929890
vt 0.250000 0.840685
vt 0.500000 0.696350
vt 0.000000 0.286028
vt 0.369263 0.000000
vt 0.718169 0.929890
vt 0.500000 0.840685
vt 0.750000 0.696345
vt 0.250000 0.552011
vt 0.250000 0.552011
vt 1.000000 0.840685
vt 0.781831 0.929890
vt 0.750000 0.696345
vt 0.500000 0.552010
vt 0.031831 0.462805
vt 0.801598 0.462805
vt 0.597475 0.344952
vt 0.864671 0.235699
vt 0.468169 0.462805
vt 1.000000 0.552010
vt 0.718170 0.462805
vt 0.432336 0.176777
vt 0.636455 0.058924
vt 0.864671 -0.000000
vt 0.781830 0.462805
s 0
usemtl Material.001
f 1/1/1 2/2/1 3/3/1
f 2/2/2 1/1/2 4/4/2
f 1/5/3 3/6/3 5/7/3
f 1/8/4 5/9/4 6/10/4
f 1/1/5 6/11/5 4/4/5
f 2/2/6 4/4/6 7/12/6
f 3/13/7 2/14/7 8/15/7
f 5/7/8 3/6/8 9/16/8
f 6/10/9 5/9/9 10/17/9
f 4/18/10 6/19/10 11/20/10
f 2/14/11 7/21/11 8/15/11
f 3/6/12 8/22/12 9/16/12
f 5/23/13 9/24/13 10/25/13
f 6/10/14 10/17/14 11/26/14
f 4/18/15 11/20/15 7/27/15
f 8/15/16 7/21/16 12/28/16
f 9/24/17 8/29/17 12/30/17
f 10/25/18 9/24/18 12/30/18
f 11/31/19 10/25/19 12/30/19
f 7/27/20 11/20/20 12/32/20
