# Blender 4.5.2 LTS
# www.blender.org
mtllib пирамида.mtl
o Cone
v 0.000000 -1.000000 -1.000000
v 1.000000 -1.000000 0.000000
v 0.000000 -1.000000 1.000000
v -1.000000 -1.000000 0.000000
v 0.000000 1.000000 0.000000
vn 0.6667 0.3333 -0.6667
vn 0.6667 0.3333 0.6667
vn -0.0000 -1.0000 -0.0000
vn -0.6667 0.3333 0.6667
vn -0.6667 0.3333 -0.6667
vt 0.000000 0.500000
vt 0.166667 0.000000
vt 0.333333 0.500000
vt 0.333333 0.500000
vt 0.500000 0.000000
vt 0.666667 0.500000
vt 0.666667 0.000000
vt 1.000000 0.333333
vt 0.666667 0.333333
vt 0.000000 1.000000
vt 0.166667 0.500000
vt 0.333333 1.000000
vt 0.500000 0.500000
vt 0.666667 1.000000
vt 1.000000 0.000000
s 0
f 1/1/1 5/2/1 2/3/1
f 2/4/2 5/5/2 3/6/2
f 2/7/3 4/8/3 1/9/3
f 3/10/4 5/11/4 4/12/4
f 4/12/5 5/13/5 1/14/5
f 2/7/3 3/15/3 4/8/3
