# Blender 4.5.2 LTS
# www.blender.org
mtllib тетраэдр.mtl
o Cone
v 0.000000 -0.500000 -1.000000
v 0.866025 -0.500000 0.500000
v -0.866025 -0.500000 0.500000
v 0.000000 0.500000 0.000000
vn 0.7746 0.4472 -0.4472
vn -0.0000 -1.0000 -0.0000
vn -0.0000 0.4472 0.8944
vn -0.7746 0.4472 -0.4472
vt 0.476756 0.112373
vt 0.911973 0.000000
vt 0.911973 0.449490
vt 0.476756 0.275255
vt -0.000000 0.550510
vt 0.000000 0.000000
vt 0.435217 0.662883
vt 0.870433 0.550510
vt 0.870433 1.000000
vt 0.000000 0.662883
vt 0.435217 0.550510
vt 0.435217 1.000000
s 0
f 1/1/1 4/2/1 2/3/1
f 1/4/2 2/5/2 3/6/2
f 2/7/3 4/8/3 3/9/3
f 3/10/4 4/11/4 1/12/4
