# Blender 4.5.2 LTS
# www.blender.org
mtllib Cylinder.mtl
o Cylinder
v 0.000000 -1.000000 -1.000000
v 0.000000 1.000000 -1.000000
v 0.195090 -1.000000 -0.980785
v 0.195090 1.000000 -0.980785
v 0.382683 -1.000000 -0.923880
v 0.382683 1.000000 -0.923880
v 0.555570 -1.000000 -0.831470
v 0.555570 1.000000 -0.831470
v 0.707107 -1.000000 -0.707107
v 0.707107 1.000000 -0.707107
v 0.831470 -1.000000 -0.555570
v 0.831470 1.000000 -0.555570
v 0.923880 -1.000000 -0.382683
v 0.923880 1.000000 -0.382683
v 0.980785 -1.000000 -0.195090
v 0.980785 1.000000 -0.195090
v 1.000000 -1.000000 0.000000
v 1.000000 1.000000 0.000000
v 0.980785 -1.000000 0.195090
v 0.980785 1.000000 0.195090
v 0.923880 -1.000000 0.382683
v 0.923880 1.000000 0.382683
v 0.831470 -1.000000 0.555570
v 0.831470 1.000000 0.555570
v 0.707107 -1.000000 0.707107
v 0.707107 1.000000 0.707107
v 0.555570 -1.000000 0.831470
v 0.555570 1.000000 0.831470
v 0.382683 -1.000000 0.923880
v 0.382683 1.000000 0.923880
v 0.195090 -1.000000 0.980785
v 0.195090 1.000000 0.980785
v 0.000000 -1.000000 1.000000
v 0.000000 1.000000 1.000000
v -0.195090 -1.000000 0.980785
v -0.195090 1.000000 0.980785
v -0.382683 -1.000000 0.923880
v -0.382683 1.000000 0.923880
v -0.555570 -1.000000 0.831470
v -0.555570 1.000000 0.831470
v -0.707107 -1.000000 0.707107
v -0.707107 1.000000 0.707107
v -0.831470 -1.000000 0.555570
v -0.831470 1.000000 0.555570
v -0.923880 -1.000000 0.382683
v -0.923880 1.000000 0.382683
v -0.980785 -1.000000 0.195090
v -0.980785 1.000000 0.195090
v -1.000000 -1.000000 0.000000
v -1.000000 1.000000 0.000000
v -0.980785 -1.000000 -0.195090
v -0.980785 1.000000 -0.195090
v -0.923880 -1.000000 -0.382683
v -0.923880 1.000000 -0.382683
v -0.831470 -1.000000 -0.555570
v -0.831470 1.000000 -0.555570
v -0.707107 -1.000000 -0.707107
v -0.707107 1.000000 -0.707107
v -0.555570 -1.000000 -0.831470
v -0.555570 1.000000 -0.831470
v -0.382683 -1.000000 -0.923880
v -0.382683 1.000000 -0.923880
v -0.195090 -1.000000 -0.980785
v -0.195090 1.000000 -0.980785
vn 0.0980 -0.0000 -0.9952
vn 0.2903 -0.0000 -0.9569
vn 0.4714 -0.0000 -0.8819
vn 0.6344 -0.0000 -0.7730
vn 0.7730 -0.0000 -0.6344
vn 0.8819 -0.0000 -0.4714
vn 0.9569 -0.0000 -0.2903
vn 0.9952 -0.0000 -0.0980
vn 0.9952 -0.0000 0.0980
vn 0.9569 -0.0000 0.2903
vn 0.8819 -0.0000 0.4714
vn 0.7730 -0.0000 0.6344
vn 0.6344 -0.0000 0.7730
vn 0.4714 -0.0000 0.8819
vn 0.2903 -0.0000 0.9569
vn 0.0980 -0.0000 0.9952
vn -0.0980 -0.0000 0.9952
vn -0.2903 -0.0000 0.9569
vn -0.4714 -0.0000 0.8819
vn -0.6344 -0.0000 0.7730
vn -0.7730 -0.0000 0.6344
vn -0.8819 -0.0000 0.4714
vn -0.9569 -0.0000 0.2903
vn -0.9952 -0.0000 0.0980
vn -0.9952 -0.0000 -0.0980
vn -0.9569 -0.0000 -0.2903
vn -0.8819 -0.0000 -0.4714
vn -0.7730 -0.0000 -0.6344
vn -0.6344 -0.0000 -0.7730
vn -0.4714 -0.0000 -0.8819
vn -0.0000 1.0000 -0.0000
vn -0.2903 -0.0000 -0.9569
vn -0.0980 -0.0000 -0.9952
vn -0.0000 -1.0000 -0.0000
vt 0.774623 0.353553
vt 0.803576 0.708818
vt 0.774623 0.708818
vt 0.803576 0.353553
vt 0.835748 0.708818
vt 0.835748 0.353553
vt 0.869901 0.708818
vt 0.869901 0.353553
vt 0.904723 0.708818
vt 0.904723 0.353553
vt 0.938875 0.708818
vt 0.938875 0.353553
vt 0.971047 0.708818
vt 0.971047 0.353553
vt 1.000000 0.708818
vt 0.274623 0.353553
vt 0.303576 0.708818
vt 0.274623 0.708818
vt 0.303576 0.353553
vt 0.335748 0.708818
vt 0.335748 0.353553
vt 0.369900 0.708818
vt 0.369900 0.353553
vt 0.404722 0.708818
vt 0.404722 0.353553
vt 0.438875 0.708818
vt 0.438875 0.353553
vt 0.471047 0.708818
vt 0.471047 0.353553
vt 0.500000 0.708818
vt 0.500000 0.353553
vt 0.524623 0.708818
vt 0.000000 0.353553
vt 0.024623 0.708818
vt 0.000000 0.708818
vt 0.024623 0.353553
vt 0.053576 0.708818
vt 0.053576 0.353553
vt 0.085748 0.708818
vt 0.085748 0.353553
vt 0.119900 0.708818
vt 0.119900 0.353553
vt 0.154722 0.708818
vt 0.154722 0.353553
vt 0.188875 0.708818
vt 0.188875 0.353553
vt 0.221047 0.708818
vt 0.221047 0.353553
vt 0.250000 0.708818
vt 0.250000 0.353553
vt 0.274623 0.708818
vt 0.524623 0.353553
vt 0.549246 0.708818
vt 0.549246 0.353553
vt 0.578199 0.708818
vt 0.578199 0.353553
vt 0.610371 0.708818
vt 0.610371 0.353553
vt 0.644523 0.708818
vt 0.644523 0.353553
vt 0.679345 0.708818
vt 0.679345 0.353553
vt 0.713498 0.708818
vt 0.707107 0.194188
vt 0.512919 0.353553
vt 0.353553 0.159366
vt 0.713498 0.353553
vt 0.745670 0.708818
vt 0.745670 0.353553
vt 0.774623 0.708818
vt 0.353553 0.159366
vt 0.194188 0.353553
vt 0.000000 0.194188
vt 1.000000 0.353553
vt 0.274623 0.353553
vt 0.360347 0.125213
vt 0.373673 0.093041
vt 0.393019 0.064088
vt 0.417642 0.039465
vt 0.446595 0.020119
vt 0.478766 0.006793
vt 0.512919 -0.000000
vt 0.547741 -0.000000
vt 0.581894 0.006793
vt 0.614065 0.020119
vt 0.643019 0.039465
vt 0.667642 0.064088
vt 0.686988 0.093042
vt 0.700314 0.125213
vt 0.707107 0.159366
vt 0.700313 0.228341
vt 0.643019 0.314088
vt 0.686988 0.260512
vt 0.667642 0.289465
vt 0.614065 0.333434
vt 0.581894 0.346760
vt 0.547741 0.353553
vt 0.478766 0.346760
vt 0.393019 0.289465
vt 0.446595 0.333434
vt 0.417642 0.314088
vt 0.373673 0.260512
vt 0.360347 0.228341
vt 0.353553 0.194188
vt -0.000000 0.159366
vt 0.006793 0.125213
vt 0.020119 0.093042
vt 0.039465 0.064088
vt 0.064088 0.039465
vt 0.093041 0.020119
vt 0.125213 0.006793
vt 0.159366 0.000000
vt 0.194188 -0.000000
vt 0.228340 0.006793
vt 0.260512 0.020119
vt 0.289465 0.039465
vt 0.314088 0.064088
vt 0.333434 0.093041
vt 0.346760 0.125213
vt 0.353553 0.194188
vt 0.346760 0.228340
vt 0.333434 0.260512
vt 0.314088 0.289465
vt 0.289465 0.314088
vt 0.260512 0.333434
vt 0.228341 0.346760
vt 0.159366 0.353553
vt 0.125213 0.346760
vt 0.093042 0.333434
vt 0.064088 0.314088
vt 0.039465 0.289465
vt 0.020119 0.260512
vt 0.006793 0.228341
s 0
usemtl Material.001
f 2/1/1 3/2/1 1/3/1
f 4/4/2 5/5/2 3/2/2
f 6/6/3 7/7/3 5/5/3
f 8/8/4 9/9/4 7/7/4
f 10/10/5 11/11/5 9/9/5
f 12/12/6 13/13/6 11/11/6
f 14/14/7 15/15/7 13/13/7
f 16/16/8 17/17/8 15/18/8
f 18/19/9 19/20/9 17/17/9
f 20/21/10 21/22/10 19/20/10
f 22/23/11 23/24/11 21/22/11
f 24/25/12 25/26/12 23/24/12
f 26/27/13 27/28/13 25/26/13
f 28/29/14 29/30/14 27/28/14
f 30/31/15 31/32/15 29/30/15
f 32/33/16 33/34/16 31/35/16
f 34/36/17 35/37/17 33/34/17
f 36/38/18 37/39/18 35/37/18
f 38/40/19 39/41/19 37/39/19
f 40/42/20 41/43/20 39/41/20
f 42/44/21 43/45/21 41/43/21
f 44/46/22 45/47/22 43/45/22
f 46/48/23 47/49/23 45/47/23
f 48/50/24 49/51/24 47/49/24
f 50/52/25 51/53/25 49/32/25
f 52/54/26 53/55/26 51/53/26
f 54/56/27 55/57/27 53/55/27
f 56/58/28 57/59/28 55/57/28
f 58/60/29 59/61/29 57/59/29
f 60/62/30 61/63/30 59/61/30
f 38/64/31 22/65/31 6/66/31
f 62/67/32 63/68/32 61/63/32
f 64/69/33 1/70/33 63/68/33
f 31/71/34 47/72/34 63/73/34
f 2/1/1 4/4/1 3/2/1
f 4/4/2 6/6/2 5/5/2
f 6/6/3 8/8/3 7/7/3
f 8/8/4 10/10/4 9/9/4
f 10/10/5 12/12/5 11/11/5
f 12/12/6 14/14/6 13/13/6
f 14/14/7 16/74/7 15/15/7
f 16/16/8 18/19/8 17/17/8
f 18/19/9 20/21/9 19/20/9
f 20/21/10 22/23/10 21/22/10
f 22/23/11 24/25/11 23/24/11
f 24/25/12 26/27/12 25/26/12
f 26/27/13 28/29/13 27/28/13
f 28/29/14 30/31/14 29/30/14
f 30/31/15 32/52/15 31/32/15
f 32/33/16 34/36/16 33/34/16
f 34/36/17 36/38/17 35/37/17
f 36/38/18 38/40/18 37/39/18
f 38/40/19 40/42/19 39/41/19
f 40/42/20 42/44/20 41/43/20
f 42/44/21 44/46/21 43/45/21
f 44/46/22 46/48/22 45/47/22
f 46/48/23 48/50/23 47/49/23
f 48/50/24 50/75/24 49/51/24
f 50/52/25 52/54/25 51/53/25
f 52/54/26 54/56/26 53/55/26
f 54/56/27 56/58/27 55/57/27
f 56/58/28 58/60/28 57/59/28
f 58/60/29 60/62/29 59/61/29
f 60/62/30 62/67/30 61/63/30
f 6/66/31 4/76/31 2/77/31
f 2/77/31 64/78/31 6/66/31
f 64/78/31 62/79/31 6/66/31
f 62/79/31 60/80/31 58/81/31
f 58/81/31 56/82/31 54/83/31
f 54/83/31 52/84/31 50/85/31
f 50/85/31 48/86/31 54/83/31
f 48/86/31 46/87/31 54/83/31
f 46/87/31 44/88/31 42/89/31
f 42/89/31 40/90/31 38/64/31
f 38/64/31 36/91/31 30/92/31
f 36/91/31 34/93/31 30/92/31
f 34/93/31 32/94/31 30/92/31
f 30/92/31 28/95/31 26/96/31
f 26/96/31 24/97/31 22/65/31
f 22/65/31 20/98/31 14/99/31
f 20/98/31 18/100/31 14/99/31
f 18/100/31 16/101/31 14/99/31
f 14/99/31 12/102/31 10/103/31
f 10/103/31 8/104/31 6/66/31
f 62/79/31 58/81/31 6/66/31
f 58/81/31 54/83/31 6/66/31
f 46/87/31 42/89/31 54/83/31
f 42/89/31 38/64/31 54/83/31
f 30/92/31 26/96/31 38/64/31
f 26/96/31 22/65/31 38/64/31
f 14/99/31 10/103/31 22/65/31
f 10/103/31 6/66/31 22/65/31
f 6/66/31 54/83/31 38/64/31
f 62/67/32 64/69/32 63/68/32
f 64/69/33 2/1/33 1/70/33
f 63/73/34 1/105/34 3/106/34
f 3/106/34 5/107/34 7/108/34
f 7/108/34 9/109/34 11/110/34
f 11/110/34 13/111/34 15/112/34
f 15/112/34 17/113/34 19/114/34
f 19/114/34 21/115/34 23/116/34
f 23/116/34 25/117/34 27/118/34
f 27/118/34 29/119/34 31/71/34
f 31/71/34 33/120/34 35/121/34
f 35/121/34 37/122/34 39/123/34
f 39/123/34 41/124/34 43/125/34
f 43/125/34 45/126/34 47/72/34
f 47/72/34 49/127/34 51/128/34
f 51/128/34 53/129/34 55/130/34
f 55/130/34 57/131/34 59/132/34
f 59/132/34 61/133/34 63/73/34
f 63/73/34 3/106/34 15/112/34
f 3/106/34 7/108/34 15/112/34
f 7/108/34 11/110/34 15/112/34
f 15/112/34 19/114/34 31/71/34
f 19/114/34 23/116/34 31/71/34
f 23/116/34 27/118/34 31/71/34
f 31/71/34 35/121/34 47/72/34
f 35/121/34 39/123/34 47/72/34
f 39/123/34 43/125/34 47/72/34
f 47/72/34 51/128/34 63/73/34
f 51/128/34 55/130/34 63/73/34
f 55/130/34 59/132/34 63/73/34
f 63/73/34 15/112/34 31/71/34
